#!OML:ASF F:\VICON\USERDATA\INSTALL\rory3\rory3.ASF
:FULLY-SPECIFIED
:DEGREES
105
root 1.1686779574871529 17.865155853347666 45.652181262297525 -3.3104113224112517 -1.0536029928594601 -5.282326542819501
lfemur -17.3710522342218 -1.2516430011787645 -14.318582253405964
ltibia 52.41026460691768
lfoot -6.183155257620455 3.485682554120321
ltoes -8.378232178017551
rfemur -2.645336949162319 4.127068269198041 28.917047895073907
rtibia 29.02311909074962
rfoot -6.9324627487391455 -8.247375322112982
rtoes 0.6349738944561469
lowerback 1.0 0.5439848643483858 3.4935018882996216
upperback 0.25834936042760775 1.6235254033354665 1.8794502608991546
thorax -4.938859189116214 0.8096954094937392 -0.18474812119520112
lowerneck -16.66721324964694 -3.1950531404268614 -1.1103428225731764
upperneck 21.21962678943623 -4.19141021869076 0.5179994052489099
head 9.604006095488407 -2.000554744762571 -0.16960319208197658
lclavicle -1.0478445322611835e-15 -3.9756788535427364e-16
lhumerus -31.506036985828704 -0.10090763717733287 84.3486372466401
lradius 23.26679974934689
lwrist 7.77784076858466
lhand -27.18695177315347 23.157916064015247
lfingers nan
lthumb -0.48571739618107884 53.32694676899247
rclavicle -1.132423583081633e-15 -4.647033898862508e-16
rhumerus -27.956636190106618 -18.96015345288131 -78.26164915881357
rradius 29.045826362478
rwrist 4.486932542042457
rhand -17.62723955006219 1.0
rfingers nan
rthumb 8.663800640257548 -8.374548355855776
106
root 1.1528533986284022 17.86066048005211 45.15516166967372 -3.417722958059125 -0.9669089043353047 -5.528294511748884
lfemur -17.330353483877374 -1.4364239669688836 -14.433225630784756
ltibia 47.12473209763547
lfoot -6.322188962158284 4.189385094108556
ltoes -9.739258604015205
rfemur -2.5477650518322097 4.3287368636758465 29.134855557041618
rtibia 30.740620425409162
rfoot -3.712793494122245 -8.315311254198779
rtoes 2.5672687917243793
lowerback 1.0 0.6388423270641543 3.610351820443708
upperback 0.2477180255110566 1.7562147751687043 1.7812532395812863
thorax -4.88433375723775 0.8871675368388167 -0.32911830590353097
lowerneck -16.54554171705209 -3.2363751254277315 -1.2035238378457394
upperneck 21.311646430088786 -4.260261295965791 0.5990386280868863
head 9.63355681547374 -2.0266927833213457 -0.1488474538714464
lclavicle -1.0451372454857142e-15 -3.958629988089614e-16
lhumerus -31.643033041829767 0.1544010581268912 84.34759931894827
lradius 23.610635504222294
lwrist 7.796372113374592
lhand -27.133457275464213 23.18160997340599
lfingers nan
lthumb -0.4981267707473709 53.23243650714708
rclavicle -1.1308303546290962e-15 -4.637624821881678e-16
rhumerus -27.7061611710904 -18.411130583671962 -78.26421153041858
rradius 29.16963322487492
rwrist 4.4879699013315975
rhand -17.619208109213652 1.0
rfingers nan
rthumb 8.63299830276212 -8.445099927563877
107
root 1.1381877851249653 17.857729284649082 45.13329148724108 -3.4541682874836037 -0.8629813182760466 -5.866502447065988
lfemur -16.993137857846822 -1.6130214379901027 -14.497144647090312
ltibia 41.599134888335755
lfoot -5.773647497844876 4.538714621173713
ltoes -9.761182014399534
rfemur -2.862887783279172 4.520077829710281 29.461030705664346
rtibia 33.08449373667124
rfoot -1.504581417108195 -9.199404771755626
rtoes 4.745487763688827
lowerback 1.0 0.6958661184268397 3.764637515036636
upperback 0.22306170844054674 1.8394479262381198 1.755866444974136
thorax -4.865391966938475 0.9382862416194429 -0.4518060847624987
lowerneck -16.464242935510136 -3.266059931390484 -1.2891823546600651
upperneck 21.35920396585715 -4.311022225520341 0.699071415602917
head 9.644956028270737 -2.0447174976500055 -0.1148689974431912
lclavicle -1.0430532767835315e-15 -3.9473218783582633e-16
lhumerus -31.793265604356595 0.2448864290021045 84.29800327038599
lradius 24.012118947473507
lwrist 7.756574444577625
lhand -27.096522705134255 23.173821692493227
lfingers nan
lthumb -0.464265752205972 53.227781118696726
rclavicle -1.128213120395626e-15 -4.62032734970992e-16
rhumerus -27.476061042435997 -17.808124912375547 -78.23480630485892
rradius 29.30684903439732
rwrist 4.5155203243839654
rhand -17.630088563042314 1.0
rfingers nan
rthumb 8.681093789615222 -8.345408037142937
108
root 1.1184807911293864 17.85244235308694 44.93732447845295 -3.47831370846151 -0.8052252323927753 -6.00242946773785
lfemur -16.280715982216392 -1.789718214879755 -14.858745920068726
ltibia 36.365882229188564
lfoot -5.9433900288211 3.8930837912104765
ltoes -10.286623883726365
rfemur -3.3314498873550313 4.557298377841233 29.57136148460813
rtibia 35.759200585990094
rfoot -0.54644517977595 -10.460151294023952
rtoes 6.419078716460538
lowerback 1.0 0.7373967827343448 3.784921360628571
upperback 0.20824828736788606 1.91413254771691 1.740766545163703
thorax -4.864730337419143 0.980744513360393 -0.5223509554518919
lowerneck -16.429942437351 -3.287085107648907 -1.3495959175255532
upperneck 21.35535916482167 -4.348552671283136 0.8113179175737835
head 9.637543997310145 -2.0563760129001847 -0.07249491879190201
lclavicle -1.0418261512973434e-15 -3.9417833079786894e-16
lhumerus -31.80439540349985 0.2358996127576875 84.25660894387164
lradius 24.431492159190622
lwrist 7.657054360001979
lhand -27.053443632694105 23.191836321001503
lfingers nan
lthumb -0.4587519180787265 53.17421967805371
rclavicle -1.1258445800870117e-15 -4.604127539406228e-16
rhumerus -27.35793320529016 -17.273308980374978 -78.24430304546385
rradius 29.425048779442648
rwrist 4.555252994584823
rhand -17.627597706687528 1.0
rfingers nan
rthumb 8.685690906353118 -8.368256332567185
109
root 1.0969305582709825 17.845978334556875 44.807268998022884 -3.4974537100203458 -0.6901524905057346 -5.700493150467716
lfemur -15.241609812839275 -1.9968382101911544 -15.674066651757808
ltibia 31.9494906633889
lfoot -5.792948050936387 2.7973739218356894
ltoes -10.343899548698968
rfemur -3.8958025276627346 4.372359590060989 29.163577629355757
rtibia 38.644630971318065
rfoot -0.537870216793344 -11.538851318980655
rtoes 7.354575976807025
lowerback 1.0 0.7389848085386657 3.538469768176706
upperback 0.19808149659623653 1.8225932750204215 1.6651098335126306
thorax -4.864352962746596 0.9409169461624363 -0.47569999905816984
lowerneck -16.440649610864636 -3.2981794842253715 -1.3858278868334764
upperneck 21.30949016065486 -4.3718159066892515 0.9316761136915918
head 9.618179352441397 -2.061291810435617 -0.02441535548952045
lclavicle -1.0411257247736044e-15 -3.9380123369492083e-16
lhumerus -31.69256019025712 0.055959645819233406 84.20261926292453
lradius 24.860608776230507
lwrist 7.503386836326488
lhand -27.02949940393894 23.192105397825404
lfingers nan
lthumb -0.42045308418740496 53.204049759561684
rclavicle -1.1238604563621214e-15 -4.589150260880069e-16
rhumerus -27.33900878609292 -16.895594209200976 -78.3257961650483
rradius 29.5033256170836
rwrist 4.590094024582928
rhand -17.60945430810163 1.0
rfingers nan
rthumb 8.752584508492289 -8.258570589847812
110
root 1.0874226871462036 17.8430860750858 45.056620796410364 -3.5461526254341162 -0.4818409554529106 -4.944260101886826
lfemur -13.960534650432304 -2.286758974076283 -16.957677466952408
ltibia 28.727844779179325
lfoot -5.750981591441618 1.6131276678044038
ltoes -9.916992200712539
rfemur -4.750099847394245 3.9320095877320704 28.180962716920597
rtibia 41.75609359322863
rfoot -0.947349831211536 -11.940553791736878
rtoes 7.882367137632247
lowerback 1.0 0.6651167515720938 2.9540397500986533
upperback 0.20966229206349948 1.6149828208959771 1.5657683292610245
thorax -4.851565051094055 0.8552048371353289 -0.2855172048285839
lowerneck -16.48392018092206 -3.301180193269662 -1.405581651666894
upperneck 21.230849992363062 -4.383062453809156 1.0541266047046722
head 9.590361946253807 -2.0606155690555243 0.02583716146416898
lclavicle -1.0411470084720882e-15 -3.9351132354694387e-16
lhumerus -31.358119348465284 -0.16880383959784684 84.17596241237098
lradius 25.253156282242767
lwrist 7.326650751036295
lhand -26.99438899552488 23.232562140538086
lfingers nan
lthumb -0.4209785778991507 53.17933739437339
rclavicle -1.1225149249571223e-15 -4.575762850098302e-16
rhumerus -27.36495764360226 -16.625752960569194 -78.45616784839898
rradius 29.527516082450934
rwrist 4.60771963759381
rhand -17.607488452042173 1.0
rfingers nan
rthumb 8.725463138978382 -8.366508695335298
111
root 1.0846999509505593 17.842014048173443 45.43870575455804 -3.557722292102394 -0.2033972781064317 -4.017861089445626
lfemur -12.456395191895957 -2.6662711799120595 -18.454673151423773
ltibia 26.820197228593603
lfoot -6.311671409570019 1.0203951490625773
ltoes -9.033933797764819
rfemur -6.289669226258207 3.352203490889127 26.836430205066296
rtibia 45.23552582777776
rfoot -1.6402786955357644 -11.517352189860802
rtoes 8.3030912516737
lowerback 1.0 0.5471012992425337 2.289482918045881
upperback 0.21144548452772685 1.308562262570824 1.4366320738552665
thorax -4.855474241365842 0.7123320679322939 -0.0601829473683948
lowerneck -16.548420482156182 -3.293881141937197 -1.408151638295442
upperneck 21.134796540203926 -4.377903628428765 1.1659926223922084
head 9.560178961359844 -2.053282212963851 0.07382150201544427
lclavicle -1.042599106617299e-15 -3.938151419753197e-16
lhumerus -30.952611920239182 -0.5164433650205604 84.13173754840474
lradius 25.626219690013333
lwrist 7.143982019020083
lhand -26.97205229035965 23.261267143651917
lfingers nan
lthumb -0.3769281921676989 53.255185080515915
rclavicle -1.1222452900719008e-15 -4.567112107193703e-16
rhumerus -27.433327846600243 -16.427912775484117 -78.64584037182635
rradius 29.48956560044701
rwrist 4.6022403607247515
rhand -17.599856383342658 1.0
rfingers nan
rthumb 8.785108134589334 -8.261421501832698
